<svg width="112" height="50" viewBox="0 0 112 50" fill="none" xmlns="http://www.w3.org/2000/svg">
<rect width="112" height="50" rx="8" fill="#FED549"/>
<line x1="26.6942" y1="39.5" x2="26.6942" y2="49.5" stroke="black" stroke-linecap="round" stroke-linejoin="round"/>
<line x1="87.2767" y1="39.5" x2="87.2767" y2="49.5" stroke="black" stroke-linecap="round" stroke-linejoin="round"/>
<line x1="46.8884" y1="39.5" x2="46.8884" y2="49.5" stroke="black" stroke-linecap="round" stroke-linejoin="round"/>
<line x1="107.471" y1="39.5" x2="107.471" y2="49.5" stroke="black" stroke-linecap="round" stroke-linejoin="round"/>
<line x1="67.0826" y1="39.5" x2="67.0826" y2="49.5" stroke="black" stroke-linecap="round" stroke-linejoin="round"/>
<line x1="6.5" y1="39.5" x2="6.5" y2="49.5" stroke="black" stroke-linecap="round" stroke-linejoin="round"/>
<line x1="31.7427" y1="44.5" x2="31.7427" y2="49.5" stroke="black" stroke-linecap="round" stroke-linejoin="round"/>
<line x1="92.3253" y1="44.5" x2="92.3253" y2="49.5" stroke="black" stroke-linecap="round" stroke-linejoin="round"/>
<line x1="51.937" y1="44.5" x2="51.937" y2="49.5" stroke="black" stroke-linecap="round" stroke-linejoin="round"/>
<line x1="72.1311" y1="44.5" x2="72.1311" y2="49.5" stroke="black" stroke-linecap="round" stroke-linejoin="round"/>
<line x1="11.5486" y1="44.5" x2="11.5486" y2="49.5" stroke="black" stroke-linecap="round" stroke-linejoin="round"/>
<line x1="36.7913" y1="42.5" x2="36.7913" y2="49.5" stroke="black" stroke-linecap="round" stroke-linejoin="round"/>
<line x1="97.3738" y1="42.5" x2="97.3738" y2="49.5" stroke="black" stroke-linecap="round" stroke-linejoin="round"/>
<line x1="56.9855" y1="42.5" x2="56.9855" y2="49.5" stroke="black" stroke-linecap="round" stroke-linejoin="round"/>
<line x1="77.1796" y1="42.5" x2="77.1796" y2="49.5" stroke="black" stroke-linecap="round" stroke-linejoin="round"/>
<line x1="16.5971" y1="42.5" x2="16.5971" y2="49.5" stroke="black" stroke-linecap="round" stroke-linejoin="round"/>
<line x1="41.8398" y1="44.5" x2="41.8398" y2="49.5" stroke="black" stroke-linecap="round" stroke-linejoin="round"/>
<line x1="102.422" y1="44.5" x2="102.422" y2="49.5" stroke="black" stroke-linecap="round" stroke-linejoin="round"/>
<line x1="62.034" y1="44.5" x2="62.034" y2="49.5" stroke="black" stroke-linecap="round" stroke-linejoin="round"/>
<line x1="82.2282" y1="44.5" x2="82.2282" y2="49.5" stroke="black" stroke-linecap="round" stroke-linejoin="round"/>
<line x1="21.6456" y1="44.5" x2="21.6456" y2="49.5" stroke="black" stroke-linecap="round" stroke-linejoin="round"/>
</svg>
