<svg width="312" height="50" viewBox="0 0 312 50" fill="none" xmlns="http://www.w3.org/2000/svg">
<rect width="312" height="50" rx="8" fill="#FED549"/>
<line x1="8.5777" y1="39.5" x2="8.5777" y2="49.5" stroke="black" stroke-linecap="round" stroke-linejoin="round"/>
<line x1="129.743" y1="39.5" x2="129.743" y2="49.5" stroke="black" stroke-linecap="round" stroke-linejoin="round"/>
<line x1="69.1603" y1="39.5" x2="69.1603" y2="49.5" stroke="black" stroke-linecap="round" stroke-linejoin="round"/>
<line x1="190.325" y1="39.5" x2="190.325" y2="49.5" stroke="black" stroke-linecap="round" stroke-linejoin="round"/>
<line x1="28.7719" y1="39.5" x2="28.7719" y2="49.5" stroke="black" stroke-linecap="round" stroke-linejoin="round"/>
<line x1="149.937" y1="39.5" x2="149.937" y2="49.5" stroke="black" stroke-linecap="round" stroke-linejoin="round"/>
<line x1="89.3544" y1="39.5" x2="89.3544" y2="49.5" stroke="black" stroke-linecap="round" stroke-linejoin="round"/>
<line x1="210.52" y1="39.5" x2="210.52" y2="49.5" stroke="black" stroke-linecap="round" stroke-linejoin="round"/>
<line x1="250.908" y1="39.5" x2="250.908" y2="49.5" stroke="black" stroke-linecap="round" stroke-linejoin="round"/>
<line x1="48.9661" y1="39.5" x2="48.9661" y2="49.5" stroke="black" stroke-linecap="round" stroke-linejoin="round"/>
<line x1="170.131" y1="39.5" x2="170.131" y2="49.5" stroke="black" stroke-linecap="round" stroke-linejoin="round"/>
<line x1="109.549" y1="39.5" x2="109.549" y2="49.5" stroke="black" stroke-linecap="round" stroke-linejoin="round"/>
<line x1="230.714" y1="39.5" x2="230.714" y2="49.5" stroke="black" stroke-linecap="round" stroke-linejoin="round"/>
<line x1="271.102" y1="39.5" x2="271.102" y2="49.5" stroke="black" stroke-linecap="round" stroke-linejoin="round"/>
<line x1="291.296" y1="39.5" x2="291.296" y2="49.5" stroke="black" stroke-linecap="round" stroke-linejoin="round"/>
<line x1="13.6263" y1="44.5" x2="13.6263" y2="49.5" stroke="black" stroke-linecap="round" stroke-linejoin="round"/>
<line x1="134.791" y1="44.5" x2="134.791" y2="49.5" stroke="black" stroke-linecap="round" stroke-linejoin="round"/>
<line x1="74.2088" y1="44.5" x2="74.2088" y2="49.5" stroke="black" stroke-linecap="round" stroke-linejoin="round"/>
<line x1="195.374" y1="44.5" x2="195.374" y2="49.5" stroke="black" stroke-linecap="round" stroke-linejoin="round"/>
<line x1="33.8204" y1="44.5" x2="33.8204" y2="49.5" stroke="black" stroke-linecap="round" stroke-linejoin="round"/>
<line x1="154.985" y1="44.5" x2="154.985" y2="49.5" stroke="black" stroke-linecap="round" stroke-linejoin="round"/>
<line x1="94.403" y1="44.5" x2="94.403" y2="49.5" stroke="black" stroke-linecap="round" stroke-linejoin="round"/>
<line x1="215.568" y1="44.5" x2="215.568" y2="49.5" stroke="black" stroke-linecap="round" stroke-linejoin="round"/>
<line x1="255.956" y1="44.5" x2="255.956" y2="49.5" stroke="black" stroke-linecap="round" stroke-linejoin="round"/>
<line x1="54.0146" y1="44.5" x2="54.0146" y2="49.5" stroke="black" stroke-linecap="round" stroke-linejoin="round"/>
<line x1="175.18" y1="44.5" x2="175.18" y2="49.5" stroke="black" stroke-linecap="round" stroke-linejoin="round"/>
<line x1="114.597" y1="44.5" x2="114.597" y2="49.5" stroke="black" stroke-linecap="round" stroke-linejoin="round"/>
<line x1="235.762" y1="44.5" x2="235.762" y2="49.5" stroke="black" stroke-linecap="round" stroke-linejoin="round"/>
<line x1="276.151" y1="44.5" x2="276.151" y2="49.5" stroke="black" stroke-linecap="round" stroke-linejoin="round"/>
<line x1="296.345" y1="44.5" x2="296.345" y2="49.5" stroke="black" stroke-linecap="round" stroke-linejoin="round"/>
<line x1="18.6748" y1="42.5" x2="18.6748" y2="49.5" stroke="black" stroke-linecap="round" stroke-linejoin="round"/>
<line x1="139.84" y1="42.5" x2="139.84" y2="49.5" stroke="black" stroke-linecap="round" stroke-linejoin="round"/>
<line x1="79.2573" y1="42.5" x2="79.2573" y2="49.5" stroke="black" stroke-linecap="round" stroke-linejoin="round"/>
<line x1="200.422" y1="42.5" x2="200.422" y2="49.5" stroke="black" stroke-linecap="round" stroke-linejoin="round"/>
<line x1="38.869" y1="42.5" x2="38.869" y2="49.5" stroke="black" stroke-linecap="round" stroke-linejoin="round"/>
<line x1="160.034" y1="42.5" x2="160.034" y2="49.5" stroke="black" stroke-linecap="round" stroke-linejoin="round"/>
<line x1="99.4515" y1="42.5" x2="99.4515" y2="49.5" stroke="black" stroke-linecap="round" stroke-linejoin="round"/>
<line x1="220.617" y1="42.5" x2="220.617" y2="49.5" stroke="black" stroke-linecap="round" stroke-linejoin="round"/>
<line x1="261.005" y1="42.5" x2="261.005" y2="49.5" stroke="black" stroke-linecap="round" stroke-linejoin="round"/>
<line x1="59.0632" y1="42.5" x2="59.0632" y2="49.5" stroke="black" stroke-linecap="round" stroke-linejoin="round"/>
<line x1="180.228" y1="42.5" x2="180.228" y2="49.5" stroke="black" stroke-linecap="round" stroke-linejoin="round"/>
<line x1="119.646" y1="42.5" x2="119.646" y2="49.5" stroke="black" stroke-linecap="round" stroke-linejoin="round"/>
<line x1="240.811" y1="42.5" x2="240.811" y2="49.5" stroke="black" stroke-linecap="round" stroke-linejoin="round"/>
<line x1="281.199" y1="42.5" x2="281.199" y2="49.5" stroke="black" stroke-linecap="round" stroke-linejoin="round"/>
<line x1="301.393" y1="42.5" x2="301.393" y2="49.5" stroke="black" stroke-linecap="round" stroke-linejoin="round"/>
<line x1="23.7234" y1="44.5" x2="23.7234" y2="49.5" stroke="black" stroke-linecap="round" stroke-linejoin="round"/>
<line x1="144.888" y1="44.5" x2="144.888" y2="49.5" stroke="black" stroke-linecap="round" stroke-linejoin="round"/>
<line x1="84.3059" y1="44.5" x2="84.3059" y2="49.5" stroke="black" stroke-linecap="round" stroke-linejoin="round"/>
<line x1="205.471" y1="44.5" x2="205.471" y2="49.5" stroke="black" stroke-linecap="round" stroke-linejoin="round"/>
<line x1="43.9175" y1="44.5" x2="43.9175" y2="49.5" stroke="black" stroke-linecap="round" stroke-linejoin="round"/>
<line x1="165.083" y1="44.5" x2="165.083" y2="49.5" stroke="black" stroke-linecap="round" stroke-linejoin="round"/>
<line x1="104.5" y1="44.5" x2="104.5" y2="49.5" stroke="black" stroke-linecap="round" stroke-linejoin="round"/>
<line x1="225.665" y1="44.5" x2="225.665" y2="49.5" stroke="black" stroke-linecap="round" stroke-linejoin="round"/>
<line x1="266.053" y1="44.5" x2="266.053" y2="49.5" stroke="black" stroke-linecap="round" stroke-linejoin="round"/>
<line x1="64.1117" y1="44.5" x2="64.1117" y2="49.5" stroke="black" stroke-linecap="round" stroke-linejoin="round"/>
<line x1="185.277" y1="44.5" x2="185.277" y2="49.5" stroke="black" stroke-linecap="round" stroke-linejoin="round"/>
<line x1="124.694" y1="44.5" x2="124.694" y2="49.5" stroke="black" stroke-linecap="round" stroke-linejoin="round"/>
<line x1="245.859" y1="44.5" x2="245.859" y2="49.5" stroke="black" stroke-linecap="round" stroke-linejoin="round"/>
<line x1="286.248" y1="44.5" x2="286.248" y2="49.5" stroke="black" stroke-linecap="round" stroke-linejoin="round"/>
<line x1="306.442" y1="44.5" x2="306.442" y2="49.5" stroke="black" stroke-linecap="round" stroke-linejoin="round"/>
</svg>
