<svg width="310" height="115" viewBox="0 0 310 115" fill="none" xmlns="http://www.w3.org/2000/svg">
<rect width="310" height="114.263" fill="#F7F7F7"/>
<g clip-path="url(#clip0)">
<path d="M139.102 58.4171C139.231 58.1348 139.457 58.0404 139.773 58.0424C141.537 58.0512 143.299 58.0431 145.063 58.0512C145.26 58.0519 145.345 57.9946 145.422 57.8174C145.639 57.3133 145.887 56.8227 146.125 56.3267C146.156 56.2607 146.191 56.196 146.242 56.0962C145.845 56.0962 145.482 56.0962 145.12 56.0962C144.518 56.0962 143.915 56.0976 143.313 56.0956C142.915 56.0949 142.667 55.8947 142.674 55.5847C142.68 55.2849 142.926 55.0867 143.304 55.0861C144.457 55.084 145.609 55.0894 146.761 55.0793C146.872 55.0786 147.017 55.0193 147.086 54.9392C148.602 53.1682 150.498 51.9808 152.816 51.4322C152.963 51.3972 153.035 51.3426 153.027 51.1808C153.013 50.8783 153.016 50.5743 153.027 50.2718C153.031 50.139 152.976 50.0837 152.854 50.0366C152.006 49.7091 151.54 48.9388 151.693 48.1355C151.855 47.2817 152.581 46.7069 153.518 46.7028C154.714 46.6968 155.91 46.6988 157.106 46.7015C158.078 46.7035 158.802 47.2568 158.967 48.118C159.131 48.9765 158.659 49.7273 157.737 50.0696C157.713 50.0784 157.69 50.0891 157.658 50.1013C157.658 50.5191 157.658 50.9382 157.658 51.3055C158.432 51.5885 159.209 51.8028 159.919 52.1459C163.299 53.7787 165.287 56.4177 165.822 60.0277C166.182 62.4612 165.613 64.7254 164.274 66.8125C164.138 67.0261 163.956 67.1501 163.691 67.1056C163.461 67.0672 163.292 66.921 163.282 66.704C163.275 66.5423 163.341 66.3569 163.431 66.2154C164.054 65.2363 164.479 64.185 164.705 63.0582C165.581 58.6786 163.029 54.2956 158.689 52.7241C154.037 51.0393 148.796 53.1041 146.7 57.4467C144.177 62.6714 147.185 68.8146 152.983 70.2312C155.593 70.8693 158.07 70.498 160.379 69.1448C160.431 69.1145 160.482 69.0808 160.535 69.0525C160.817 68.9056 161.115 68.9716 161.267 69.2149C161.419 69.4562 161.348 69.7453 161.076 69.9151C160.087 70.5344 159.019 70.9826 157.873 71.246C152.705 72.4341 147.569 69.903 145.544 65.1689C145.47 64.995 145.373 64.9532 145.194 64.9546C144.111 64.9613 143.028 64.9586 141.947 64.9573C141.833 64.9573 141.718 64.9573 141.608 64.9377C141.366 64.8953 141.197 64.6857 141.198 64.4498C141.2 64.2241 141.358 64.0212 141.589 63.9727C141.699 63.9498 141.814 63.9484 141.927 63.9478C142.922 63.9457 143.918 63.9471 144.913 63.9464C144.964 63.9464 145.015 63.9397 145.079 63.935C144.972 63.2968 144.868 62.6707 144.757 62.0043C144.687 62.0043 144.595 62.0043 144.503 62.0043C143.849 62.0043 143.193 62.0063 142.539 62.0036C142.165 62.0022 141.925 61.7933 141.933 61.4867C141.94 61.1895 142.174 60.9954 142.539 60.9941C143.271 60.9914 144.004 60.9934 144.74 60.9934C144.826 60.3478 144.91 59.7177 144.998 59.056C144.905 59.056 144.803 59.056 144.7 59.056C143.085 59.056 141.469 59.0506 139.855 59.06C139.534 59.062 139.276 58.9899 139.102 58.719C139.102 58.6193 139.102 58.5182 139.102 58.4171ZM155.336 49.1268C155.937 49.1268 156.539 49.1295 157.141 49.1261C157.623 49.1234 157.955 48.831 157.955 48.4219C157.954 48.0115 157.622 47.7157 157.138 47.7137C155.935 47.7089 154.732 47.7089 153.529 47.7137C153.044 47.7157 152.72 48.0088 152.721 48.4246C152.721 48.8445 153.039 49.1234 153.532 49.1261C154.133 49.1295 154.734 49.1268 155.336 49.1268ZM154.085 51.1626C154.938 51.1626 155.761 51.1626 156.586 51.1626C156.586 50.8277 156.586 50.4948 156.586 50.1525C155.747 50.1525 154.923 50.1525 154.085 50.1525C154.085 50.5009 154.085 50.8331 154.085 51.1626Z" fill="black"/>
<path d="M139.103 64.2799C139.139 64.2361 139.175 64.1923 139.212 64.1492C139.418 63.91 139.771 63.8864 139.992 64.0973C140.21 64.3049 140.199 64.6378 139.969 64.8318C139.737 65.0273 139.381 64.9828 139.196 64.7328C139.161 64.6856 139.134 64.633 139.103 64.5832C139.103 64.4821 139.103 64.381 139.103 64.2799Z" fill="black"/>
<path d="M155.355 53.499C159.853 53.5145 163.476 57.0241 163.466 61.3539C163.456 65.6782 159.789 69.1987 155.317 69.1784C150.832 69.1589 147.201 65.6277 147.22 61.3047C147.239 56.985 150.888 53.4835 155.355 53.499ZM155.341 54.5105C151.433 54.5118 148.268 57.5666 148.268 61.3377C148.267 65.1 151.448 68.1696 155.345 68.1683C159.245 68.1669 162.422 65.0973 162.419 61.3343C162.415 57.5612 159.249 54.5084 155.341 54.5105Z" fill="black"/>
<path d="M161.938 68.1757C161.949 67.8987 162.181 67.6911 162.471 67.6986C162.756 67.706 162.986 67.9358 162.98 68.2053C162.973 68.4877 162.723 68.7094 162.427 68.6946C162.14 68.6818 161.929 68.456 161.938 68.1757Z" fill="black"/>
<path d="M155.34 62.9085C154.229 62.9065 153.448 61.8512 153.812 60.8296C153.865 60.6773 153.844 60.591 153.726 60.4839C153.404 60.188 153.092 59.8814 152.78 59.5748C152.52 59.3194 152.501 59.0336 152.719 58.8153C152.937 58.597 153.259 58.6152 153.527 58.8679C153.844 59.1691 154.16 59.4717 154.47 59.7803C154.571 59.8807 154.653 59.9178 154.805 59.8612C155.158 59.7291 155.526 59.7298 155.88 59.8605C156.03 59.9158 156.113 59.8834 156.216 59.7823C156.978 59.0404 157.745 58.3038 158.51 57.5652C158.566 57.512 158.619 57.4554 158.679 57.4069C158.902 57.2303 159.198 57.2384 159.393 57.4237C159.586 57.6077 159.604 57.9022 159.418 58.1097C159.275 58.2688 159.114 58.4123 158.96 58.5612C158.306 59.1927 157.655 59.8275 156.995 60.4522C156.861 60.5782 156.821 60.6739 156.886 60.8592C157.232 61.8667 156.437 62.9106 155.34 62.9085ZM155.343 60.7831C155.018 60.7831 154.762 61.0304 154.767 61.3417C154.77 61.6389 155.022 61.8869 155.33 61.895C155.644 61.9031 155.915 61.649 155.919 61.3424C155.923 61.0317 155.668 60.7837 155.343 60.7831Z" fill="black"/>
<path d="M155.869 56.1649C155.869 56.2485 155.873 56.3327 155.868 56.4163C155.848 56.6939 155.644 56.8914 155.37 56.9015C155.098 56.9109 154.863 56.7263 154.833 56.4553C154.812 56.2734 154.815 56.0861 154.829 55.9034C154.852 55.6163 155.083 55.4243 155.368 55.4324C155.655 55.4411 155.855 55.642 155.869 55.9391C155.873 56.0146 155.87 56.0901 155.87 56.1656C155.869 56.1649 155.869 56.1649 155.869 56.1649Z" fill="black"/>
<path d="M160.703 61.8573C160.582 61.8485 160.458 61.8546 160.341 61.829C160.075 61.7704 159.921 61.5493 159.946 61.2865C159.969 61.0432 160.162 60.8593 160.427 60.8431C160.591 60.833 160.757 60.8357 160.922 60.8404C161.238 60.8492 161.463 61.0554 161.468 61.3337C161.473 61.6093 161.25 61.827 160.939 61.8479C160.861 61.8533 160.782 61.8485 160.705 61.8485C160.703 61.8519 160.703 61.8546 160.703 61.8573Z" fill="black"/>
<path d="M154.817 66.5119C154.817 66.4283 154.812 66.3441 154.817 66.2605C154.835 65.9842 155.038 65.7827 155.31 65.7686C155.579 65.7544 155.82 65.9391 155.852 66.21C155.874 66.3919 155.871 66.5786 155.857 66.7619C155.835 67.047 155.599 67.2518 155.324 67.2444C155.046 67.237 154.832 67.0247 154.817 66.7383C154.813 66.6628 154.817 66.5874 154.817 66.5119Z" fill="black"/>
<path d="M149.988 60.8229C150.093 60.8276 150.198 60.8242 150.302 60.8377C150.553 60.87 150.728 61.056 150.742 61.296C150.756 61.552 150.604 61.7751 150.344 61.8101C150.113 61.8405 149.873 61.8405 149.642 61.8135C149.383 61.7839 149.21 61.5541 149.219 61.3128C149.229 61.0587 149.424 60.8599 149.701 60.8343C149.796 60.8256 149.893 60.833 149.989 60.833C149.988 60.8296 149.988 60.8262 149.988 60.8229Z" fill="black"/>
</g>
<path d="M52.5636 79.8593H54.2336C53.9236 81.3093 52.8236 81.4393 52.4936 81.4393C51.4736 81.4393 50.4036 80.9293 50.4036 78.9693C50.4036 77.1293 51.3936 76.3893 52.4636 76.3893C53.5236 76.3893 54.0336 77.2893 54.0336 77.5693H55.5336C55.4536 76.5793 54.5836 75.1493 52.3836 75.1493H52.3636C49.9536 75.1493 48.8736 76.9993 48.8736 78.9493C48.8736 81.4693 50.4436 82.7093 52.1736 82.7093C53.4836 82.7093 54.0336 82.0593 54.4136 81.6193L54.5636 82.5193H55.5636V78.6493H52.5636V79.8593ZM60.7902 78.5993C60.7902 77.2893 59.4202 77.0593 58.6702 77.0593C57.5802 77.0593 56.4502 77.2893 56.2902 78.9193H57.6402C57.6802 78.6093 57.8002 78.1793 58.5002 78.1793C58.8602 78.1793 59.4202 78.2093 59.4202 78.7993C59.4202 79.0993 59.1502 79.1893 58.9302 79.2193L57.6702 79.4093C56.7802 79.5393 56.1202 80.0693 56.1202 81.1093C56.1202 82.2093 56.9402 82.6593 57.7402 82.6593C58.6902 82.6593 59.1402 82.2193 59.4602 81.8893C59.4902 82.1893 59.5102 82.2693 59.5902 82.5193H61.1002V82.3093C60.9302 82.2493 60.7902 82.1093 60.7902 81.4793V78.5993ZM59.4202 80.6093C59.4202 81.2593 58.7902 81.6593 58.1702 81.6593C57.9002 81.6593 57.5202 81.5093 57.5202 81.0193C57.5202 80.4393 57.9502 80.3093 58.4702 80.2193C59.0502 80.1293 59.2802 80.0393 59.4202 79.9293V80.6093ZM61.6403 82.5193H63.0403V79.7493C63.0403 79.1593 63.2403 78.4793 64.3303 78.4793C64.4603 78.4793 64.6103 78.4793 64.7303 78.4993V77.0793C64.6403 77.0693 64.5503 77.0593 64.4603 77.0593C63.6103 77.0593 63.2903 77.5793 63.0003 78.1193H62.9803V77.1993H61.6403V82.5193ZM72.614 78.8393C72.614 77.6693 71.804 77.0593 70.764 77.0593C69.914 77.0593 69.524 77.6493 69.344 77.9093C68.984 77.3393 68.634 77.0593 67.864 77.0593C66.924 77.0593 66.534 77.6293 66.354 77.9793H66.334V77.1993H64.994V82.5193H66.394V79.2793C66.394 78.6993 66.604 78.2393 67.264 78.2393C68.104 78.2393 68.104 78.8693 68.104 79.3193V82.5193H69.504V79.3293C69.504 78.6993 69.754 78.2393 70.454 78.2393C70.864 78.2393 71.214 78.4993 71.214 79.2893V82.5193H72.614V78.8393ZM76.6341 80.9593C76.5241 81.3393 76.1241 81.5393 75.7341 81.5393C74.6041 81.5393 74.5241 80.6393 74.4841 80.2393H78.1341V79.9893C78.1341 77.5593 76.6841 77.0593 75.6341 77.0593C73.3041 77.0593 73.0841 79.1093 73.0841 79.7493C73.0841 81.9393 74.2341 82.6593 75.7341 82.6593C76.6441 82.6593 77.7041 82.2393 78.0741 80.9593H76.6341ZM74.5241 79.3293C74.6041 78.6293 74.9541 78.2093 75.6141 78.2093C76.0641 78.2093 76.6141 78.4693 76.6941 79.3293H74.5241ZM83.4842 78.8393C83.4842 77.6693 82.6742 77.0593 81.6342 77.0593C80.6242 77.0593 80.2242 77.6593 80.0342 77.9793H80.0142V77.1993H78.6742V82.5193H80.0742V79.4693C80.0742 78.6593 80.5542 78.2393 81.1742 78.2393C82.0642 78.2393 82.0842 78.8993 82.0842 79.2893V82.5193H83.4842V78.8393ZM85.9709 75.7593H84.5709V77.1993H83.8509V78.1993H84.5709V81.4293C84.5709 82.1193 84.7909 82.5793 86.0009 82.5793H86.1809C86.4009 82.5793 86.6209 82.5693 86.8409 82.5593V81.4993C86.7409 81.5093 86.6409 81.5193 86.5509 81.5193C85.9809 81.5193 85.9709 81.3993 85.9709 81.0893V78.1993H86.8409V77.1993H85.9709V75.7593ZM46.2798 89.1993V94.5193H47.6798V89.1993H46.2798ZM47.6798 87.2693H46.2798V88.5693H47.6798V87.2693ZM53.4464 90.8393C53.4464 89.6693 52.6364 89.0593 51.5964 89.0593C50.5864 89.0593 50.1864 89.6593 49.9964 89.9793H49.9764V89.1993H48.6364V94.5193H50.0364V91.4693C50.0364 90.6593 50.5164 90.2393 51.1364 90.2393C52.0264 90.2393 52.0464 90.8993 52.0464 91.2893V94.5193H53.4464V90.8393ZM58.7431 90.8193C58.6331 89.3193 57.3931 89.0593 56.3531 89.0593C54.6931 89.0593 54.2031 90.0593 54.2031 90.8393C54.2031 92.8293 57.5031 92.1593 57.5031 93.0493C57.5031 93.2493 57.3331 93.5993 56.6131 93.5993C55.7331 93.5993 55.4531 93.2693 55.4531 92.8193H54.0131C54.0531 94.2393 55.3631 94.6593 56.5731 94.6593C57.4031 94.6593 58.9031 94.3793 58.9031 92.8293C58.9031 90.8693 55.5731 91.4793 55.5731 90.6393C55.5731 90.4093 55.6731 90.1193 56.4331 90.1193C57.1931 90.1193 57.3131 90.4793 57.3731 90.8193H58.7431ZM64.3332 89.1993H62.9332V92.2693C62.9332 93.2193 62.3132 93.4793 61.8532 93.4793C61.4232 93.4793 60.9432 93.3193 60.9432 92.4993V89.1993H59.5432V92.6993C59.5432 94.0593 60.3032 94.6593 61.3532 94.6593C62.0932 94.6593 62.6532 94.3393 62.9732 93.7693H62.9932V94.5193H64.3332V89.1993ZM65.2499 94.5193H66.6499V91.7493C66.6499 91.1593 66.8499 90.4793 67.9399 90.4793C68.0699 90.4793 68.2199 90.4793 68.3399 90.4993V89.0793C68.2499 89.0693 68.1599 89.0593 68.0699 89.0593C67.2199 89.0593 66.8999 89.5793 66.6099 90.1193H66.5899V89.1993H65.2499V94.5193ZM72.8747 90.5993C72.8747 89.2893 71.5047 89.0593 70.7547 89.0593C69.6647 89.0593 68.5347 89.2893 68.3747 90.9193H69.7247C69.7647 90.6093 69.8847 90.1793 70.5847 90.1793C70.9447 90.1793 71.5047 90.2093 71.5047 90.7993C71.5047 91.0993 71.2347 91.1893 71.0147 91.2193L69.7547 91.4093C68.8647 91.5393 68.2047 92.0693 68.2047 93.1093C68.2047 94.2093 69.0247 94.6593 69.8247 94.6593C70.7747 94.6593 71.2247 94.2193 71.5447 93.8893C71.5747 94.1893 71.5947 94.2693 71.6747 94.5193H73.1847V94.3093C73.0147 94.2493 72.8747 94.1093 72.8747 93.4793V90.5993ZM71.5047 92.6093C71.5047 93.2593 70.8747 93.6593 70.2547 93.6593C69.9847 93.6593 69.6047 93.5093 69.6047 93.0193C69.6047 92.4393 70.0347 92.3093 70.5547 92.2193C71.1347 92.1293 71.3647 92.0393 71.5047 91.9293V92.6093ZM78.5448 90.8393C78.5448 89.6693 77.7348 89.0593 76.6948 89.0593C75.6848 89.0593 75.2848 89.6593 75.0948 89.9793H75.0748V89.1993H73.7348V94.5193H75.1348V91.4693C75.1348 90.6593 75.6148 90.2393 76.2348 90.2393C77.1248 90.2393 77.1448 90.8993 77.1448 91.2893V94.5193H78.5448V90.8393ZM82.6215 92.5793C82.6215 92.8293 82.3815 93.5093 81.6715 93.5093C80.6115 93.5093 80.5915 92.3593 80.5915 91.7793C80.5915 91.1193 80.8215 90.2393 81.7015 90.2393H81.7715C82.3715 90.2393 82.5715 90.7593 82.6315 91.0993H84.0515C83.9215 89.4393 82.5415 89.0593 81.7015 89.0593C79.9015 89.0593 79.1515 90.2893 79.1515 92.0093C79.1515 93.1293 79.6115 94.6593 81.6115 94.6593C83.5615 94.6593 83.9915 93.1293 84.0415 92.5793H82.6215ZM87.7616 92.9593C87.6516 93.3393 87.2516 93.5393 86.8616 93.5393C85.7316 93.5393 85.6516 92.6393 85.6116 92.2393H89.2616V91.9893C89.2616 89.5593 87.8116 89.0593 86.7616 89.0593C84.4316 89.0593 84.2116 91.1093 84.2116 91.7493C84.2116 93.9393 85.3616 94.6593 86.8616 94.6593C87.7716 94.6593 88.8316 94.2393 89.2016 92.9593H87.7616ZM85.6516 91.3293C85.7316 90.6293 86.0816 90.2093 86.7416 90.2093C87.1916 90.2093 87.7416 90.4693 87.8216 91.3293H85.6516Z" fill="#717171"/>
<path d="M144.203 76.6093H146.373V75.3393H140.533V76.6093H142.703V82.5193H144.203V76.6093ZM146.81 77.1993V82.5193H148.21V77.1993H146.81ZM148.21 75.2693H146.81V76.5693H148.21V75.2693ZM156.776 78.8393C156.776 77.6693 155.966 77.0593 154.926 77.0593C154.076 77.0593 153.686 77.6493 153.506 77.9093C153.146 77.3393 152.796 77.0593 152.026 77.0593C151.086 77.0593 150.696 77.6293 150.516 77.9793H150.496V77.1993H149.156V82.5193H150.556V79.2793C150.556 78.6993 150.766 78.2393 151.426 78.2393C152.266 78.2393 152.266 78.8693 152.266 79.3193V82.5193H153.666V79.3293C153.666 78.6993 153.916 78.2393 154.616 78.2393C155.026 78.2393 155.376 78.4993 155.376 79.2893V82.5193H156.776V78.8393ZM160.797 80.9593C160.687 81.3393 160.287 81.5393 159.897 81.5393C158.767 81.5393 158.687 80.6393 158.647 80.2393H162.297V79.9893C162.297 77.5593 160.847 77.0593 159.797 77.0593C157.467 77.0593 157.247 79.1093 157.247 79.7493C157.247 81.9393 158.397 82.6593 159.897 82.6593C160.807 82.6593 161.867 82.2393 162.237 80.9593H160.797ZM158.687 79.3293C158.767 78.6293 159.117 78.2093 159.777 78.2093C160.227 78.2093 160.777 78.4693 160.857 79.3293H158.687ZM164.277 75.3393H162.877V82.5193H164.277V75.3393ZM169.827 77.1993H168.347L167.257 81.1193H167.237L166.097 77.1993H164.537L166.497 82.7393C166.367 83.4693 166.087 83.5393 165.577 83.5393C165.457 83.5393 165.367 83.5293 165.307 83.5193V84.6393C165.507 84.6493 165.747 84.6593 165.937 84.6593C167.157 84.6593 167.337 84.3993 167.997 82.4293L169.827 77.1993ZM141.906 91.9793C141.906 91.1293 142.136 90.2693 143.096 90.2693C143.986 90.2693 144.286 91.0593 144.286 91.8993C144.286 92.5293 144.036 93.5093 143.136 93.5093C142.246 93.5093 141.906 92.7693 141.906 91.9793ZM141.906 89.1993H140.566V96.5893H141.966V93.8393H141.986C142.156 94.1293 142.506 94.6593 143.486 94.6593C145.066 94.6593 145.726 93.2593 145.726 91.7993C145.726 89.9593 144.686 89.0593 143.516 89.0593C142.576 89.0593 142.186 89.5493 141.926 89.9693H141.906V89.1993ZM146.363 89.1993V94.5193H147.763V89.1993H146.363ZM147.763 87.2693H146.363V88.5693H147.763V87.2693ZM151.879 92.5793C151.879 92.8293 151.639 93.5093 150.929 93.5093C149.869 93.5093 149.849 92.3593 149.849 91.7793C149.849 91.1193 150.079 90.2393 150.959 90.2393H151.029C151.629 90.2393 151.829 90.7593 151.889 91.0993H153.309C153.179 89.4393 151.799 89.0593 150.959 89.0593C149.159 89.0593 148.409 90.2893 148.409 92.0093C148.409 93.1293 148.869 94.6593 150.869 94.6593C152.819 94.6593 153.249 93.1293 153.299 92.5793H151.879ZM155.134 92.8393L155.714 92.2393L156.984 94.5193H158.664L156.734 91.2593L158.614 89.1993H156.894L155.134 91.2193V87.3393H153.734V94.5193H155.134V92.8393ZM163.664 89.1993H162.264V92.2693C162.264 93.2193 161.644 93.4793 161.184 93.4793C160.754 93.4793 160.274 93.3193 160.274 92.4993V89.1993H158.874V92.6993C158.874 94.0593 159.634 94.6593 160.684 94.6593C161.424 94.6593 161.984 94.3393 162.304 93.7693H162.324V94.5193H163.664V89.1993ZM165.901 91.9793C165.901 91.1293 166.131 90.2693 167.091 90.2693C167.981 90.2693 168.281 91.0593 168.281 91.8993C168.281 92.5293 168.031 93.5093 167.131 93.5093C166.241 93.5093 165.901 92.7693 165.901 91.9793ZM165.901 89.1993H164.561V96.5893H165.961V93.8393H165.981C166.151 94.1293 166.501 94.6593 167.481 94.6593C169.061 94.6593 169.721 93.2593 169.721 91.7993C169.721 89.9593 168.681 89.0593 167.511 89.0593C166.571 89.0593 166.181 89.5493 165.921 89.9693H165.901V89.1993Z" fill="#717171"/>
<path d="M228.461 79.9293H230.181C232.111 79.9293 232.471 78.2893 232.471 77.6393C232.471 76.2293 231.631 75.3393 230.241 75.3393H226.961V82.5193H228.461V79.9293ZM228.461 78.6893V76.5793H229.651C230.581 76.5793 230.971 76.8693 230.971 77.5693C230.971 77.8893 230.971 78.6893 229.851 78.6893H228.461ZM232.929 82.5193H234.329V79.7493C234.329 79.1593 234.529 78.4793 235.619 78.4793C235.749 78.4793 235.899 78.4793 236.019 78.4993V77.0793C235.929 77.0693 235.839 77.0593 235.749 77.0593C234.899 77.0593 234.579 77.5793 234.289 78.1193H234.269V77.1993H232.929V82.5193ZM239.374 80.9593C239.264 81.3393 238.864 81.5393 238.474 81.5393C237.344 81.5393 237.264 80.6393 237.224 80.2393H240.874V79.9893C240.874 77.5593 239.424 77.0593 238.374 77.0593C236.044 77.0593 235.824 79.1093 235.824 79.7493C235.824 81.9393 236.974 82.6593 238.474 82.6593C239.384 82.6593 240.444 82.2393 240.814 80.9593H239.374ZM237.264 79.3293C237.344 78.6293 237.694 78.2093 238.354 78.2093C238.804 78.2093 239.354 78.4693 239.434 79.3293H237.264ZM244.574 80.5793C244.574 80.8293 244.334 81.5093 243.624 81.5093C242.564 81.5093 242.544 80.3593 242.544 79.7793C242.544 79.1193 242.774 78.2393 243.654 78.2393H243.724C244.324 78.2393 244.524 78.7593 244.584 79.0993H246.004C245.874 77.4393 244.494 77.0593 243.654 77.0593C241.854 77.0593 241.104 78.2893 241.104 80.0093C241.104 81.1293 241.564 82.6593 243.564 82.6593C245.514 82.6593 245.944 81.1293 245.994 80.5793H244.574ZM246.624 77.1993V82.5193H248.024V77.1993H246.624ZM248.024 75.2693H246.624V76.5693H248.024V75.2693ZM253.36 78.8193C253.25 77.3193 252.01 77.0593 250.97 77.0593C249.31 77.0593 248.82 78.0593 248.82 78.8393C248.82 80.8293 252.12 80.1593 252.12 81.0493C252.12 81.2493 251.95 81.5993 251.23 81.5993C250.35 81.5993 250.07 81.2693 250.07 80.8193H248.63C248.67 82.2393 249.98 82.6593 251.19 82.6593C252.02 82.6593 253.52 82.3793 253.52 80.8293C253.52 78.8693 250.19 79.4793 250.19 78.6393C250.19 78.4093 250.29 78.1193 251.05 78.1193C251.81 78.1193 251.93 78.4793 251.99 78.8193H253.36ZM257.28 80.9593C257.17 81.3393 256.77 81.5393 256.38 81.5393C255.25 81.5393 255.17 80.6393 255.13 80.2393H258.78V79.9893C258.78 77.5593 257.33 77.0593 256.28 77.0593C253.95 77.0593 253.73 79.1093 253.73 79.7493C253.73 81.9393 254.88 82.6593 256.38 82.6593C257.29 82.6593 258.35 82.2393 258.72 80.9593H257.28ZM255.17 79.3293C255.25 78.6293 255.6 78.2093 256.26 78.2093C256.71 78.2093 257.26 78.4693 257.34 79.3293H255.17ZM228.221 90.8193C228.111 89.3193 226.871 89.0593 225.831 89.0593C224.171 89.0593 223.681 90.0593 223.681 90.8393C223.681 92.8293 226.981 92.1593 226.981 93.0493C226.981 93.2493 226.811 93.5993 226.091 93.5993C225.211 93.5993 224.931 93.2693 224.931 92.8193H223.491C223.531 94.2393 224.841 94.6593 226.051 94.6593C226.881 94.6593 228.381 94.3793 228.381 92.8293C228.381 90.8693 225.051 91.4793 225.051 90.6393C225.051 90.4093 225.151 90.1193 225.911 90.1193C226.671 90.1193 226.791 90.4793 226.851 90.8193H228.221ZM230.581 87.7593H229.181V89.1993H228.461V90.1993H229.181V93.4293C229.181 94.1193 229.401 94.5793 230.611 94.5793H230.791C231.011 94.5793 231.231 94.5693 231.451 94.5593V93.4993C231.351 93.5093 231.251 93.5193 231.161 93.5193C230.591 93.5193 230.581 93.3993 230.581 93.0893V90.1993H231.451V89.1993H230.581V87.7593ZM231.994 89.1993V94.5193H233.394V89.1993H231.994ZM233.394 87.2693H231.994V88.5693H233.394V87.2693ZM235.921 87.7593H234.521V89.1993H233.801V90.1993H234.521V93.4293C234.521 94.1193 234.741 94.5793 235.951 94.5793H236.131C236.351 94.5793 236.571 94.5693 236.791 94.5593V93.4993C236.691 93.5093 236.591 93.5193 236.501 93.5193C235.931 93.5193 235.921 93.3993 235.921 93.0893V90.1993H236.791V89.1993H235.921V87.7593ZM240.455 92.5793C240.455 92.8293 240.215 93.5093 239.505 93.5093C238.445 93.5093 238.425 92.3593 238.425 91.7793C238.425 91.1193 238.655 90.2393 239.535 90.2393H239.605C240.205 90.2393 240.405 90.7593 240.465 91.0993H241.885C241.755 89.4393 240.375 89.0593 239.535 89.0593C237.735 89.0593 236.985 90.2893 236.985 92.0093C236.985 93.1293 237.445 94.6593 239.445 94.6593C241.395 94.6593 241.825 93.1293 241.875 92.5793H240.455ZM247.177 90.8393C247.177 89.6693 246.367 89.0593 245.327 89.0593C244.567 89.0593 243.967 89.4493 243.787 89.8893H243.767V87.3393H242.367V94.5193H243.767V91.4693C243.767 90.6593 244.247 90.2393 244.867 90.2393C245.757 90.2393 245.777 90.8993 245.777 91.2893V94.5193H247.177V90.8393ZM248.134 89.1993V94.5193H249.534V89.1993H248.134ZM249.534 87.2693H248.134V88.5693H249.534V87.2693ZM255.3 90.8393C255.3 89.6693 254.49 89.0593 253.45 89.0593C252.44 89.0593 252.04 89.6593 251.85 89.9793H251.83V89.1993H250.49V94.5193H251.89V91.4693C251.89 90.6593 252.37 90.2393 252.99 90.2393C253.88 90.2393 253.9 90.8993 253.9 91.2893V94.5193H255.3V90.8393ZM259.757 89.1993V89.9893H259.737C259.567 89.6393 259.167 89.0593 258.177 89.0593C257.007 89.0593 255.967 89.9593 255.967 91.7993C255.967 93.6593 256.977 94.5493 258.257 94.5493C259.097 94.5493 259.447 94.1593 259.677 93.7493L259.697 93.7693V94.4093C259.697 95.2693 259.337 95.6293 258.587 95.6293C257.777 95.6293 257.667 95.3593 257.607 95.0893H256.087C256.147 96.2193 257.307 96.6893 258.407 96.6893C261.027 96.6893 261.097 95.1593 261.097 94.2393V89.1993H259.757ZM257.407 91.8893C257.407 90.6493 257.987 90.2693 258.507 90.2693C259.287 90.2693 259.707 90.9693 259.707 91.8293C259.707 92.5593 259.467 93.3693 258.517 93.3693C257.687 93.3693 257.407 92.5693 257.407 91.8893Z" fill="#717171"/>
<g clip-path="url(#clip1)">
<path d="M76.4748 56.8559C76.4748 58.3741 76.5319 59.895 76.46 61.4105C76.3744 63.2218 75.561 64.7471 74.0798 65.8418C71.9943 67.3832 69.8415 68.8397 67.7109 70.3249C67.277 70.6269 66.833 70.6135 66.3955 70.3088C64.3404 68.8755 62.2714 67.4601 60.2421 65.9928C58.4947 64.7284 57.6445 62.9894 57.6343 60.8797C57.6214 57.9764 57.6343 55.0732 57.627 52.1699C57.626 51.7883 57.7679 51.5542 58.1419 51.3969C60.9791 50.204 63.8098 49.0003 66.6377 47.7895C66.9362 47.6618 67.1932 47.6582 67.4916 47.786C70.3095 48.9905 73.1301 50.1906 75.9562 51.3782C76.3513 51.5444 76.5098 51.7874 76.5061 52.1994C76.4923 53.7515 76.5006 55.3037 76.5006 56.8559C76.4923 56.8559 76.4831 56.8559 76.4748 56.8559ZM58.8153 57.039C58.8153 58.3124 58.8125 59.5858 58.8162 60.8591C58.8208 62.6865 59.5899 64.1368 61.1145 65.2064C63.0167 66.5414 64.9253 67.8666 66.8229 69.2079C67.0228 69.3491 67.1398 69.3294 67.3258 69.1981C69.2161 67.8657 71.1136 66.545 73.0075 65.2171C74.5311 64.1484 75.3132 62.7017 75.3169 60.8743C75.3224 58.1382 75.316 55.4011 75.3243 52.6649C75.3252 52.4424 75.257 52.3272 75.0442 52.2378C72.4613 51.1494 69.883 50.0494 67.2991 48.9637C67.172 48.9101 66.9795 48.9065 66.8533 48.9601C64.2685 50.0449 61.6902 51.1458 59.1073 52.2333C58.8816 52.3281 58.8079 52.4478 58.8097 52.6828C58.8199 54.1349 58.8153 55.587 58.8153 57.039Z" fill="black"/>
<path d="M65.7436 61.138C65.8329 61.0093 65.9103 60.8994 65.9858 60.7895C67.3188 58.8504 68.6508 56.9114 69.9846 54.9723C70.0546 54.8704 70.1218 54.7614 70.2149 54.6819C70.4406 54.4915 70.6966 54.4692 70.9426 54.6399C71.172 54.7989 71.2503 55.0259 71.1508 55.2886C71.1121 55.3914 71.0476 55.487 70.984 55.579C69.4927 57.7513 68.0013 59.9227 66.5081 62.0933C66.1424 62.625 65.8808 62.6678 65.3521 62.2827C64.6529 61.7743 63.9519 61.2685 63.2555 60.7556C62.9405 60.5241 62.8631 60.2471 63.017 59.9728C63.1957 59.6529 63.589 59.5814 63.9344 59.8253C64.5286 60.2471 65.1135 60.6796 65.7436 61.138Z" fill="black"/>
</g>
<g clip-path="url(#clip2)">
<path d="M254.359 69.0884C254.342 69.1246 254.32 69.1595 254.31 69.1977C254.083 70.0183 253.426 70.5208 252.559 70.5221C250.635 70.5247 248.71 70.5228 246.786 70.5228C241.627 70.5228 236.467 70.4786 231.309 70.5432C229.082 70.5708 228.394 69.9366 228.546 67.8009C228.567 67.5072 228.579 67.2069 228.65 66.9231C228.955 65.7021 230.096 64.8104 231.38 64.7873C232.194 64.7729 233.01 64.7827 233.825 64.7827C239.606 64.7827 245.387 64.7827 251.168 64.7827C251.269 64.7827 251.37 64.7794 251.471 64.7873C251.779 64.8117 251.998 65.0409 252.004 65.3392C252.01 65.6369 251.801 65.8806 251.498 65.9201C251.399 65.9326 251.297 65.9273 251.196 65.9273C244.659 65.9273 238.122 65.9273 231.584 65.928C230.698 65.928 229.971 66.385 229.81 67.172C229.695 67.7344 229.731 68.3317 229.741 68.9126C229.746 69.1707 229.984 69.342 230.257 69.3736C230.348 69.3841 230.442 69.3795 230.534 69.3795C237.81 69.3795 245.088 69.3795 252.364 69.3795C253.001 69.3795 253.186 69.1951 253.19 68.5721C253.197 67.2056 253.222 65.8364 252.976 64.4851C252.743 63.2068 252.46 61.9371 252.218 60.6608C251.971 59.3601 251.723 58.0588 251.524 56.7509C251.432 56.1437 251.442 55.5201 251.432 54.9037C251.418 54.0232 251.43 53.142 251.428 52.2615C251.428 51.7814 251.206 51.5588 250.726 51.5588C245.264 51.5575 239.802 51.5582 234.34 51.5588C233.897 51.5588 233.71 51.7294 233.632 52.164C233.407 53.4206 233.172 54.6791 233.249 55.962C233.294 56.716 233.381 57.4701 233.507 58.2156C233.646 59.0388 234.367 59.5972 235.222 59.6058C235.911 59.613 236.6 59.6104 237.289 59.6064C237.697 59.6038 237.926 59.3766 237.927 58.9736C237.93 57.7058 237.927 56.4381 237.93 55.1704C237.93 55.0485 237.94 54.9208 237.978 54.8069C238.059 54.5638 238.319 54.4117 238.57 54.4381C238.846 54.4664 239.066 54.6587 239.088 54.928C239.107 55.1638 239.092 55.4022 239.092 55.5859C240.828 55.5859 242.53 55.5892 244.232 55.584C244.71 55.5826 245.148 55.6814 245.518 55.9936C245.914 56.3288 246.138 56.7522 246.14 57.2659C246.147 59.1836 246.145 61.102 246.142 63.0198C246.142 63.3833 245.896 63.6263 245.556 63.6243C245.216 63.6224 244.979 63.3787 244.978 63.0112C244.975 61.1758 244.977 59.3397 244.977 57.5043C244.977 56.9215 244.788 56.7371 244.194 56.7371C242.748 56.7364 241.303 56.7364 239.857 56.7371C239.298 56.7371 239.106 56.9287 239.105 57.4839C239.103 57.9363 239.105 58.3894 239.104 58.8419C239.103 59.9766 238.522 60.6239 237.362 60.7662C237.308 61.0836 237.125 61.295 236.761 61.3431C236.761 61.8996 236.764 62.4501 236.76 63C236.757 63.3234 236.586 63.5493 236.314 63.6092C235.934 63.6928 235.603 63.4492 235.595 63.056C235.583 62.4969 235.592 61.9371 235.592 61.3905C235.441 61.3075 235.283 61.2555 235.177 61.1521C235.076 61.0546 235.031 60.9032 234.951 60.7537C234.734 60.7003 234.474 60.6628 234.233 60.5732C233.036 60.1267 232.467 59.233 232.268 58.0193C231.942 56.0318 232.059 54.0679 232.455 52.1074C232.49 51.9303 232.516 51.7498 232.574 51.5792C232.802 50.8989 233.436 50.434 234.165 50.4195C234.812 50.407 235.458 50.4116 236.106 50.4077C236.113 50.4077 236.12 50.4011 236.169 50.3774C236.169 50.1475 236.168 49.8966 236.169 49.6457C236.17 49.5061 236.161 49.3652 236.176 49.2262C236.211 48.9075 236.454 48.6908 236.762 48.6921C237.072 48.6934 237.316 48.9081 237.338 49.2308C237.358 49.5344 237.347 49.8393 237.349 50.1442C237.349 50.2246 237.349 50.3049 237.349 50.3998C240.877 50.3998 244.376 50.3998 247.908 50.3998C247.908 50.0185 247.898 49.6424 247.91 49.267C247.926 48.7955 248.419 48.5354 248.812 48.7843C248.997 48.9015 249.077 49.0741 249.076 49.2868C249.075 49.4679 249.076 49.649 249.077 49.8301C249.077 50.0105 249.077 50.191 249.077 50.4017C249.178 50.4063 249.266 50.4142 249.354 50.4142C249.842 50.4156 250.329 50.4116 250.817 50.4162C251.549 50.4228 252.083 50.7547 252.412 51.3909C252.48 51.5233 252.554 51.5661 252.698 51.5621C253.001 51.5529 253.304 51.5707 253.606 51.5562C253.967 51.5391 254.224 51.6675 254.361 52.002C254.361 53.2533 254.361 54.5046 254.361 55.7558C254.195 56.0667 253.934 56.1852 253.578 56.1615C253.273 56.1411 252.966 56.1576 252.643 56.1576C252.673 56.4533 252.68 56.7094 252.726 56.959C252.972 58.3012 253.228 59.6413 253.481 60.9822C253.733 62.323 253.992 63.6632 254.234 65.0053C254.301 65.3754 254.32 65.7541 254.361 66.1288C254.359 67.1127 254.359 68.1006 254.359 69.0884ZM253.174 52.7186C252.981 52.7186 252.802 52.7186 252.609 52.7186C252.609 53.4825 252.609 54.2332 252.609 54.9972C252.8 54.9972 252.98 54.9972 253.174 54.9972C253.174 54.2352 253.174 53.4845 253.174 52.7186Z" fill="black"/>
<path d="M246.737 54.41C246.746 53.4676 247.535 52.7037 248.495 52.7077C249.465 52.7116 250.259 53.496 250.25 54.443C250.241 55.3985 249.453 56.1585 248.474 56.1526C247.502 56.1467 246.728 55.3702 246.737 54.41ZM249.071 54.443C249.076 54.1242 248.835 53.8759 248.513 53.8661C248.18 53.8562 247.912 54.1025 247.907 54.4232C247.902 54.7393 248.173 55.0087 248.494 55.0074C248.81 55.006 249.067 54.7551 249.071 54.443Z" fill="black"/>
<path d="M249.079 59.0234C248.753 59.0234 248.504 58.785 248.499 58.4676C248.494 58.1423 248.752 57.8815 249.079 57.8815C249.389 57.8821 249.657 58.139 249.664 58.4432C249.672 58.7626 249.409 59.0234 249.079 59.0234Z" fill="black"/>
<path d="M248.499 60.7671C248.493 60.4477 248.732 60.1988 249.055 60.1889C249.389 60.1784 249.658 60.4227 249.664 60.7448C249.671 61.0582 249.398 61.3302 249.078 61.3302C248.761 61.3296 248.504 61.08 248.499 60.7671Z" fill="black"/>
<path d="M249.082 63.622C248.758 63.6234 248.506 63.3836 248.5 63.0682C248.493 62.7428 248.749 62.4801 249.076 62.4788C249.395 62.4774 249.671 62.7508 249.665 63.0629C249.659 63.3738 249.402 63.6207 249.082 63.622Z" fill="black"/>
<path d="M237.34 58.4588C237.337 58.7835 237.075 59.0304 236.741 59.0225C236.422 59.0153 236.167 58.7604 236.17 58.4509C236.173 58.1381 236.456 57.8714 236.774 57.8812C237.09 57.8918 237.342 58.1493 237.34 58.4588Z" fill="black"/>
</g>
<path d="M113.224 17.5793H110.186L108.394 25.5033H108.366L106.546 17.5793H103.48V27.6313H105.44V19.2313H105.468L107.302 27.6313H109.36L111.236 19.2313H111.264V27.6313H113.224V17.5793ZM120.734 22.1433C120.734 20.3093 118.816 19.9873 117.766 19.9873C116.24 19.9873 114.658 20.3093 114.434 22.5913H116.324C116.38 22.1573 116.548 21.5553 117.528 21.5553C118.032 21.5553 118.816 21.5973 118.816 22.4233C118.816 22.8433 118.438 22.9693 118.13 23.0113L116.366 23.2773C115.12 23.4593 114.196 24.2013 114.196 25.6573C114.196 27.1973 115.344 27.8273 116.464 27.8273C117.794 27.8273 118.424 27.2113 118.872 26.7493C118.914 27.1693 118.942 27.2813 119.054 27.6313H121.168V27.3373C120.93 27.2533 120.734 27.0573 120.734 26.1753V22.1433ZM118.816 24.9573C118.816 25.8673 117.934 26.4273 117.066 26.4273C116.688 26.4273 116.156 26.2173 116.156 25.5313C116.156 24.7193 116.758 24.5373 117.486 24.4113C118.298 24.2853 118.62 24.1593 118.816 24.0053V24.9573ZM128.225 22.4513C128.071 20.3513 126.335 19.9873 124.879 19.9873C122.555 19.9873 121.869 21.3873 121.869 22.4793C121.869 25.2653 126.489 24.3273 126.489 25.5733C126.489 25.8533 126.251 26.3433 125.243 26.3433C124.011 26.3433 123.619 25.8813 123.619 25.2513H121.603C121.659 27.2393 123.493 27.8273 125.187 27.8273C126.349 27.8273 128.449 27.4353 128.449 25.2653C128.449 22.5213 123.787 23.3753 123.787 22.1993C123.787 21.8773 123.927 21.4713 124.991 21.4713C126.055 21.4713 126.223 21.9753 126.307 22.4513H128.225ZM131.683 18.1673H129.723V20.1833H128.715V21.5833H129.723V26.1053C129.723 27.0713 130.031 27.7153 131.725 27.7153H131.977C132.285 27.7153 132.593 27.7013 132.901 27.6873V26.2033C132.761 26.2173 132.621 26.2313 132.495 26.2313C131.697 26.2313 131.683 26.0633 131.683 25.6293V21.5833H132.901V20.1833H131.683V18.1673ZM137.938 25.4473C137.784 25.9793 137.224 26.2593 136.678 26.2593C135.096 26.2593 134.984 24.9993 134.928 24.4393H140.038V24.0893C140.038 20.6873 138.008 19.9873 136.538 19.9873C133.276 19.9873 132.968 22.8573 132.968 23.7533C132.968 26.8193 134.578 27.8273 136.678 27.8273C137.952 27.8273 139.436 27.2393 139.954 25.4473H137.938ZM134.984 23.1653C135.096 22.1853 135.586 21.5973 136.51 21.5973C137.14 21.5973 137.91 21.9613 138.022 23.1653H134.984ZM140.935 27.6313H142.895V23.7533C142.895 22.9273 143.175 21.9753 144.701 21.9753C144.883 21.9753 145.093 21.9753 145.261 22.0033V20.0153C145.135 20.0013 145.009 19.9873 144.883 19.9873C143.693 19.9873 143.245 20.7153 142.839 21.4713H142.811V20.1833H140.935V27.6313ZM148.02 20.1833H146.06V28.3733C146.06 29.0593 145.682 29.0593 145.486 29.0593H145.136V30.6273H145.626C147.124 30.6273 148.02 30.3613 148.02 28.4153V20.1833ZM148.02 17.4813H146.06V19.3013H148.02V17.4813ZM149.569 20.1833V27.6313H151.529V20.1833H149.569ZM151.529 17.4813H149.569V19.3013H151.529V17.4813ZM158.367 24.0753C158.367 22.8853 158.689 21.6813 160.033 21.6813C161.279 21.6813 161.699 22.7873 161.699 23.9633C161.699 24.8453 161.349 26.2173 160.089 26.2173C158.843 26.2173 158.367 25.1813 158.367 24.0753ZM158.367 20.1833H156.491V30.5293H158.451V26.6793H158.479C158.717 27.0853 159.207 27.8273 160.579 27.8273C162.791 27.8273 163.715 25.8673 163.715 23.8233C163.715 21.2473 162.259 19.9873 160.621 19.9873C159.305 19.9873 158.759 20.6733 158.395 21.2613H158.367V20.1833ZM164.691 27.6313H166.651V23.7533C166.651 22.9273 166.931 21.9753 168.457 21.9753C168.639 21.9753 168.849 21.9753 169.017 22.0033V20.0153C168.891 20.0013 168.765 19.9873 168.639 19.9873C167.449 19.9873 167.001 20.7153 166.595 21.4713H166.567V20.1833H164.691V27.6313ZM176.669 23.9073C176.669 21.2193 174.863 19.9873 172.861 19.9873C170.859 19.9873 169.053 21.2193 169.053 23.9073C169.053 26.5953 170.859 27.8273 172.861 27.8273C174.863 27.8273 176.669 26.5953 176.669 23.9073ZM174.653 23.9073C174.653 24.8593 174.373 26.1753 172.861 26.1753C171.349 26.1753 171.069 24.8593 171.069 23.9073C171.069 22.9553 171.349 21.6393 172.861 21.6393C174.373 21.6393 174.653 22.9553 174.653 23.9073ZM188.313 22.4793C188.313 20.8413 187.179 19.9873 185.723 19.9873C184.533 19.9873 183.987 20.8133 183.735 21.1773C183.231 20.3793 182.741 19.9873 181.663 19.9873C180.347 19.9873 179.801 20.7853 179.549 21.2753H179.521V20.1833H177.645V27.6313H179.605V23.0953C179.605 22.2833 179.899 21.6393 180.823 21.6393C181.999 21.6393 181.999 22.5213 181.999 23.1513V27.6313H183.959V23.1653C183.959 22.2833 184.309 21.6393 185.289 21.6393C185.863 21.6393 186.353 22.0033 186.353 23.1093V27.6313H188.313V22.4793ZM189.77 20.1833V27.6313H191.73V20.1833H189.77ZM191.73 17.4813H189.77V19.3013H191.73V17.4813ZM199.355 22.4513C199.201 20.3513 197.465 19.9873 196.009 19.9873C193.685 19.9873 192.999 21.3873 192.999 22.4793C192.999 25.2653 197.619 24.3273 197.619 25.5733C197.619 25.8533 197.381 26.3433 196.373 26.3433C195.141 26.3433 194.749 25.8813 194.749 25.2513H192.733C192.789 27.2393 194.623 27.8273 196.317 27.8273C197.479 27.8273 199.579 27.4353 199.579 25.2653C199.579 22.5213 194.917 23.3753 194.917 22.1993C194.917 21.8773 195.057 21.4713 196.121 21.4713C197.185 21.4713 197.353 21.9753 197.437 22.4513H199.355ZM204.998 25.4473C204.844 25.9793 204.284 26.2593 203.738 26.2593C202.156 26.2593 202.044 24.9993 201.988 24.4393H207.098V24.0893C207.098 20.6873 205.068 19.9873 203.598 19.9873C200.336 19.9873 200.028 22.8573 200.028 23.7533C200.028 26.8193 201.638 27.8273 203.738 27.8273C205.012 27.8273 206.496 27.2393 207.014 25.4473H204.998ZM202.044 23.1653C202.156 22.1853 202.646 21.5973 203.57 21.5973C204.2 21.5973 204.97 21.9613 205.082 23.1653H202.044Z" fill="black"/>
<defs>
<clipPath id="clip0">
<rect x="139.103" y="46.6987" width="26.8269" height="24.8397" fill="white"/>
</clipPath>
<clipPath id="clip1">
<rect x="57.6279" y="47.6923" width="18.8782" height="22.8526" fill="white"/>
</clipPath>
<clipPath id="clip2">
<rect x="228.525" y="48.6859" width="25.8333" height="21.859" fill="white"/>
</clipPath>
</defs>
</svg>

